<?xml version="1.0" standalone="no"?><!DOCTYPE svg PUBLIC "-//W3C//DTD SVG 1.1//EN" "http://www.w3.org/Graphics/SVG/1.1/DTD/svg11.dtd"><svg t="1722321500720" class="icon" viewBox="0 0 1024 1024" version="1.1" xmlns="http://www.w3.org/2000/svg" p-id="1428" xmlns:xlink="http://www.w3.org/1999/xlink" width="200" height="200"><path d="M928 32v896h-94.016a225.28 225.28 0 0 1-155.136-61.632 225.472 225.472 0 0 1-70.4-178.56L449.536 672a159.488 159.488 0 0 1-114.688-46.848A159.488 159.488 0 0 1 288 512V352H192c-44.16 0-84.16-17.92-113.152-46.848A159.488 159.488 0 0 1 32 192V32h896z" fill="#95CFFB" p-id="1429"></path><path d="M960 0v960h-126.016a257.984 257.984 0 0 1-257.6-243.2L576 704H448a192 192 0 0 1-192-192V384H192a192 192 0 0 1-192-192V0h960z m-320 320v64H320v128a128 128 0 0 0 118.4 127.68L448 640h256v64H639.936l0.384 9.152a194.048 194.048 0 0 0 182.336 182.528l11.328 0.32H896V64H64v128a128 128 0 0 0 118.4 127.68L192 320h448z" fill="#0A3E7A" p-id="1430"></path></svg>